<?xml version="1.0" encoding="UTF-8" standalone="no"?>
<svg
   xmlns:dc="http://purl.org/dc/elements/1.1/"
   xmlns:cc="http://creativecommons.org/ns#"
   xmlns:rdf="http://www.w3.org/1999/02/22-rdf-syntax-ns#"
   xmlns:svg="http://www.w3.org/2000/svg"
   xmlns="http://www.w3.org/2000/svg"
   xmlns:sodipodi="http://sodipodi.sourceforge.net/DTD/sodipodi-0.dtd"
   xmlns:inkscape="http://www.inkscape.org/namespaces/inkscape"
   width="12"
   height="12"
   viewBox="0 0 12 12"
   version="1.1"
   id="svg5683"
   sodipodi:docname="cart-footer.svg"
   inkscape:version="0.92.1 r15371">
  <metadata
     id="metadata5689">
    <rdf:RDF>
      <cc:Work
         rdf:about="">
        <dc:format>image/svg+xml</dc:format>
        <dc:type
           rdf:resource="http://purl.org/dc/dcmitype/StillImage" />
        <dc:title></dc:title>
      </cc:Work>
    </rdf:RDF>
  </metadata>
  <defs
     id="defs5687" />
  <sodipodi:namedview
     pagecolor="#ffffff"
     bordercolor="#666666"
     borderopacity="1"
     objecttolerance="10"
     gridtolerance="10"
     guidetolerance="10"
     inkscape:pageopacity="0"
     inkscape:pageshadow="2"
     inkscape:window-width="1440"
     inkscape:window-height="838"
     id="namedview5685"
     showgrid="false"
     inkscape:zoom="19.666667"
     inkscape:cx="6"
     inkscape:cy="6"
     inkscape:window-x="-8"
     inkscape:window-y="-8"
     inkscape:window-maximized="1"
     inkscape:current-layer="svg5683" />
  <path
     d="M11.864 3.017a.429.429 0 0 0-.327-.154H9.225V4.09c0 .563-.484 1.022-1.08 1.022-.594 0-1.078-.458-1.078-1.022V2.863H4.909V4.09c0 .563-.485 1.022-1.08 1.022-.595 0-1.078-.458-1.078-1.022V2.863H.438a.43.43 0 0 0-.327.154.472.472 0 0 0-.108.358l.776 7.134c.015.806.642 1.455 1.411 1.455h7.595c.77 0 1.396-.649 1.411-1.455l.776-7.134a.476.476 0 0 0-.108-.358z"
     id="path5679" />
  <path
     d="M3.829 4.499c.239 0 .433-.184.433-.409V1.84c0-.632.672-1.022 1.295-1.022h1.079c.655 0 1.078.401 1.078 1.022v2.25c0 .225.194.409.431.409.239 0 .433-.184.433-.409V1.84C8.577.773 7.761 0 6.636 0H5.557c-1.19 0-2.159.826-2.159 1.84v2.25c0 .225.194.409.431.409z"
     id="path5681" />
  <path
     style="fill:#ffc600;fill-opacity:1;stroke-width:0.05084746"
     d="M 1.7274178,11.854121 C 1.4898283,11.778092 1.0861155,11.399432 0.95593281,11.130509 0.86218358,10.93685 0.78775047,10.367034 0.44346559,7.2073673 0.2219324,5.1742513 0.04067797,3.4273106 0.04067797,3.3252768 c 0,-0.133622 0.03667599,-0.2199982 0.131113,-0.3087863 C 0.30196336,2.8941047 0.31163011,2.8931107 1.5192486,2.8779399 l 1.2163446,-0.01528 0.00112,0.7271448 c 0.00121,0.7881949 0.05725,1.0129356 0.3106662,1.2459044 0.4032368,0.3707005 1.1596381,0.3707005 1.562875,0 C 4.8634506,4.6029394 4.9197067,4.3777936 4.9209172,3.5923729 l 0.00112,-0.7245763 h 1.0677966 1.0677966 v 0.7134976 c 0,0.7600071 0.047199,0.9720614 0.2693761,1.2102484 C 7.787432,5.2851496 8.6704886,5.2148981 9.0656364,4.6532256 9.2174832,4.4373871 9.2187676,4.4297884 9.2349351,3.6517667 l 0.016292,-0.7839701 1.1531999,7.496e-4 c 1.239637,8.058e-4 1.343347,0.019132 1.47933,0.2614018 0.06799,0.1211262 0.03808,0.4785014 -0.321178,3.8382476 -0.21788,2.0375771 -0.431551,3.8253374 -0.474825,3.9727994 -0.100847,0.34366 -0.412888,0.70107 -0.748528,0.857365 l -0.256174,0.119291 -4.093221,-0.0047 c -2.7423418,-0.0031 -4.1490586,-0.02256 -4.2624127,-0.05884 z"
     id="path5691"
     inkscape:connector-curvature="0" />
  <path
     style="fill:#ffc600;fill-opacity:1;stroke-width:0.05084746"
     d="M 3.6745059,4.4476276 C 3.4273963,4.3448491 3.4220339,4.31137 3.4220339,2.8713597 V 1.5179967 L 3.5888427,1.1792618 C 3.8637862,0.62094041 4.406759,0.21532789 5.0643672,0.07701291 5.4721058,-0.00874692 6.8218517,0.00451286 7.1867746,0.09786325 7.5533892,0.19164636 7.9857269,0.47646182 8.2109703,0.77258283 8.50092,1.1537714 8.5322034,1.3565631 8.5322034,2.8549446 c 0,0.7616045 -0.021141,1.3810747 -0.048904,1.4329499 C 8.4004393,4.4427194 8.1573996,4.5157947 7.9908801,4.4359512 7.7359052,4.3136946 7.7202056,4.2206598 7.7193937,2.8271359 7.7185818,1.4338308 7.7096425,1.3810486 7.4225199,1.0742284 7.2207363,0.85860173 6.8823613,0.78305085 6.1184033,0.78305085 c -0.9874925,0 -1.3970709,0.13720713 -1.7269777,0.57853055 C 4.2930907,1.4931261 4.2848303,1.5886764 4.2610169,2.8700471 4.2371824,4.15256 4.2292365,4.2443101 4.1338983,4.3378641 4.0104977,4.4589554 3.8143948,4.5058106 3.6745059,4.4476276 Z"
     id="path5693"
     inkscape:connector-curvature="0" />
</svg>
