<?xml version="1.0" encoding="UTF-8" standalone="no"?>
<svg
   xmlns:dc="http://purl.org/dc/elements/1.1/"
   xmlns:cc="http://creativecommons.org/ns#"
   xmlns:rdf="http://www.w3.org/1999/02/22-rdf-syntax-ns#"
   xmlns:svg="http://www.w3.org/2000/svg"
   xmlns="http://www.w3.org/2000/svg"
   xmlns:sodipodi="http://sodipodi.sourceforge.net/DTD/sodipodi-0.dtd"
   xmlns:inkscape="http://www.inkscape.org/namespaces/inkscape"
   width="10"
   height="10"
   viewBox="0 0 10 10"
   version="1.1"
   id="svg4497"
   sodipodi:docname="compare-footer.svg"
   inkscape:version="0.92.1 r15371">
  <metadata
     id="metadata4503">
    <rdf:RDF>
      <cc:Work
         rdf:about="">
        <dc:format>image/svg+xml</dc:format>
        <dc:type
           rdf:resource="http://purl.org/dc/dcmitype/StillImage" />
        <dc:title></dc:title>
      </cc:Work>
    </rdf:RDF>
  </metadata>
  <defs
     id="defs4501" />
  <sodipodi:namedview
     pagecolor="#ffffff"
     bordercolor="#666666"
     borderopacity="1"
     objecttolerance="10"
     gridtolerance="10"
     guidetolerance="10"
     inkscape:pageopacity="0"
     inkscape:pageshadow="2"
     inkscape:window-width="1440"
     inkscape:window-height="838"
     id="namedview4499"
     showgrid="false"
     inkscape:zoom="23.6"
     inkscape:cx="-2.1822034"
     inkscape:cy="5"
     inkscape:window-x="-8"
     inkscape:window-y="-8"
     inkscape:window-maximized="1"
     inkscape:current-layer="svg4497" />
  <path
     d="M8 2h1.984v8H8zM0 3h1.984v7H0zM4 0h2v10H4z"
     id="path4495" />
  <path
     style="fill:#ffc600;fill-opacity:0;stroke-width:0.04237288"
     d="M 0.03389831,6.5 V 3.0254237 H 1.0084746 1.9830508 V 6.5 9.9745763 H 1.0084746 0.03389831 Z"
     id="path4505"
     inkscape:connector-curvature="0" />
  <path
     style="fill:#ffc600;fill-opacity:0;stroke-width:0.04237288"
     d="M 4.0042373,4.9957627 V 0.01694915 H 5 5.9957627 V 4.9957627 9.9745763 H 5 4.0042373 Z"
     id="path5050"
     inkscape:connector-curvature="0" />
  <path
     style="fill:#ffc600;fill-opacity:0;stroke-width:0.04237288"
     d="M 0.02118644,6.5 V 3.0254237 H 0.99576271 1.970339 V 6.5 9.9745763 H 0.99576271 0.02118644 Z"
     id="path5052"
     inkscape:connector-curvature="0" />
  <path
     style="fill:#ffc600;fill-opacity:0;stroke-width:0.04237288"
     d="M 0.02118644,6.5 V 3.0254237 H 0.99576271 1.970339 V 6.5 9.9745763 H 0.99576271 0.02118644 Z"
     id="path5054"
     inkscape:connector-curvature="0" />
  <path
     style="fill:#ffc600;fill-opacity:0;stroke-width:0.04237288"
     d="M 0.02118644,6.5 V 3.0254237 H 0.99576271 1.970339 V 6.5 9.9745763 H 0.99576271 0.02118644 Z"
     id="path5056"
     inkscape:connector-curvature="0" />
  <path
     style="fill:#ffc600;fill-opacity:0;stroke-width:0.04237288"
     d="M 4.0042373,4.9957627 V 0.01694915 H 5 5.9957627 V 4.9957627 9.9745763 H 5 4.0042373 Z"
     id="path5058"
     inkscape:connector-curvature="0" />
  <path
     style="fill:#ffc600;fill-opacity:0;stroke-width:0.04237288"
     d="M 4.0042373,4.9957627 V 0.01694915 H 5 5.9957627 V 4.9957627 9.9745763 H 5 4.0042373 Z"
     id="path5060"
     inkscape:connector-curvature="0" />
  <path
     style="fill:#ffc600;fill-opacity:0;stroke-width:0.04237288"
     d="M 8.029661,5.9915254 V 2.0084746 H 9.0042373 9.9788136 V 5.9915254 9.9745763 H 9.0042373 8.029661 Z"
     id="path5062"
     inkscape:connector-curvature="0" />
  <path
     style="fill:#ffc600;fill-opacity:0;stroke-width:0.04237288"
     d="M 8.029661,5.9915254 V 2.0084746 H 9.0042373 9.9788136 V 5.9915254 9.9745763 H 9.0042373 8.029661 Z"
     id="path5064"
     inkscape:connector-curvature="0" />
  <path
     style="fill:#ffc600;fill-opacity:0;stroke-width:0.04237288"
     d="M 4.0042373,4.9957627 V 0.01694915 H 5 5.9957627 V 4.9957627 9.9745763 H 5 4.0042373 Z"
     id="path5066"
     inkscape:connector-curvature="0" />
  <path
     style="fill:#ffc600;fill-opacity:0;stroke-width:0.04237288"
     d="M 4.0042373,4.9957627 V 0.01694915 H 5 5.9957627 V 4.9957627 9.9745763 H 5 4.0042373 Z"
     id="path5068"
     inkscape:connector-curvature="0" />
  <path
     style="fill:#ffc600;fill-opacity:0;stroke-width:0.04237288"
     d="M 8.029661,5.9915254 V 2.0084746 H 9.0042373 9.9788136 V 5.9915254 9.9745763 H 9.0042373 8.029661 Z"
     id="path5070"
     inkscape:connector-curvature="0" />
  <path
     style="fill:#0039ff;fill-opacity:0;stroke-width:0.04237288"
     d="M 8.029661,5.9915254 V 2.0084746 H 9.0042373 9.9788136 V 5.9915254 9.9745763 H 9.0042373 8.029661 Z"
     id="path5072"
     inkscape:connector-curvature="0" />
  <path
     style="fill:#ffff00;fill-opacity:1;stroke-width:0.04237288"
     d="M 4.0042373,4.9957627 V 0.01694915 H 5 5.9957627 V 4.9957627 9.9745763 H 5 4.0042373 Z"
     id="path5074"
     inkscape:connector-curvature="0" />
  <path
     style="fill:#ffff00;fill-opacity:1;stroke-width:0.04237288"
     d="M 0.02118644,6.5 V 3.0254237 H 0.99576271 1.970339 V 6.5 9.9745763 H 0.99576271 0.02118644 Z"
     id="path5076"
     inkscape:connector-curvature="0" />
  <path
     style="fill:#ffc600;fill-opacity:0;stroke-width:0.04237288"
     d="M 8.029661,5.9915254 V 2.0084746 H 9.0042373 9.9788136 V 5.9915254 9.9745763 H 9.0042373 8.029661 Z"
     id="path5078"
     inkscape:connector-curvature="0" />
  <path
     style="fill:#ffc600;fill-opacity:0;stroke-width:0.04237288"
     d="M 4.0042373,4.9957627 V 0.01694915 H 5 5.9957627 V 4.9957627 9.9745763 H 5 4.0042373 Z"
     id="path5080"
     inkscape:connector-curvature="0" />
  <path
     style="fill:#ffc600;fill-opacity:0;stroke-width:0.04237288"
     d="M 4.0042373,4.9957627 V 0.01694915 H 5 5.9957627 V 4.9957627 9.9745763 H 5 4.0042373 Z"
     id="path5082"
     inkscape:connector-curvature="0" />
  <path
     style="fill:#ffc600;fill-opacity:0;stroke-width:0.04237288"
     d="M 4.0042373,4.9957627 V 0.01694915 H 5 5.9957627 V 4.9957627 9.9745763 H 5 4.0042373 Z"
     id="path5084"
     inkscape:connector-curvature="0" />
  <path
     style="fill:#ffc600;fill-opacity:0;stroke-width:0.04237288"
     d="M 8.029661,5.9915254 V 2.0084746 H 9.0042373 9.9788136 V 5.9915254 9.9745763 H 9.0042373 8.029661 Z"
     id="path5086"
     inkscape:connector-curvature="0" />
  <path
     style="fill:#ffc600;fill-opacity:0;stroke-width:0.04237288"
     d="M 0.02118644,6.5 V 3.0254237 H 0.99576271 1.970339 V 6.5 9.9745763 H 0.99576271 0.02118644 Z"
     id="path5088"
     inkscape:connector-curvature="0" />
  <path
     style="fill:#ffc600;fill-opacity:0;stroke-width:0.04237288"
     d="M 4.0042373,4.9957627 V 0.01694915 H 5 5.9957627 V 4.9957627 9.9745763 H 5 4.0042373 Z"
     id="path5090"
     inkscape:connector-curvature="0" />
  <path
     style="fill:#ffc600;fill-opacity:0;stroke-width:0.04237288"
     d="M 4.0042373,4.9957627 V 0.01694915 H 5 5.9957627 V 4.9957627 9.9745763 H 5 4.0042373 Z"
     id="path5092"
     inkscape:connector-curvature="0" />
  <path
     style="fill:#ffc600;fill-opacity:0;stroke-width:0.04237288"
     d="M 8.029661,5.9915254 V 2.0084746 H 9.0042373 9.9788136 V 5.9915254 9.9745763 H 9.0042373 8.029661 Z"
     id="path5094"
     inkscape:connector-curvature="0" />
  <path
     style="fill:#ffc600;fill-opacity:1;stroke-width:0.04237288"
     d="M 8.029661,5.9915254 V 2.0084746 H 9.0042373 9.9788136 V 5.9915254 9.9745763 H 9.0042373 8.029661 Z"
     id="path5096"
     inkscape:connector-curvature="0" />
  <path
     style="fill:#ffc600;fill-opacity:1;stroke-width:0.04237288"
     d="M 4.0042373,4.9957627 V 0.01694915 H 5 5.9957627 V 4.9957627 9.9745763 H 5 4.0042373 Z"
     id="path5106"
     inkscape:connector-curvature="0" />
  <path
     style="fill:#ffc600;fill-opacity:1;stroke-width:0.04237288"
     d="M 0.02118644,6.5 V 3.0254237 H 0.99576271 1.970339 V 6.5 9.9745763 H 0.99576271 0.02118644 Z"
     id="path5108"
     inkscape:connector-curvature="0" />
</svg>
