<?xml version="1.0" encoding="UTF-8" standalone="no"?>
<svg
   xmlns:dc="http://purl.org/dc/elements/1.1/"
   xmlns:cc="http://creativecommons.org/ns#"
   xmlns:rdf="http://www.w3.org/1999/02/22-rdf-syntax-ns#"
   xmlns:svg="http://www.w3.org/2000/svg"
   xmlns="http://www.w3.org/2000/svg"
   xmlns:sodipodi="http://sodipodi.sourceforge.net/DTD/sodipodi-0.dtd"
   xmlns:inkscape="http://www.inkscape.org/namespaces/inkscape"
   width="13"
   height="12"
   viewBox="0 0 13 12"
   version="1.1"
   id="svg5116"
   sodipodi:docname="user-footer.svg"
   inkscape:version="0.92.1 r15371">
  <metadata
     id="metadata5122">
    <rdf:RDF>
      <cc:Work
         rdf:about="">
        <dc:format>image/svg+xml</dc:format>
        <dc:type
           rdf:resource="http://purl.org/dc/dcmitype/StillImage" />
        <dc:title></dc:title>
      </cc:Work>
    </rdf:RDF>
  </metadata>
  <defs
     id="defs5120" />
  <sodipodi:namedview
     pagecolor="#ffffff"
     bordercolor="#666666"
     borderopacity="1"
     objecttolerance="10"
     gridtolerance="10"
     guidetolerance="10"
     inkscape:pageopacity="0"
     inkscape:pageshadow="2"
     inkscape:window-width="1440"
     inkscape:window-height="838"
     id="namedview5118"
     showgrid="false"
     inkscape:zoom="19.666667"
     inkscape:cx="-2.1186441"
     inkscape:cy="6"
     inkscape:window-x="-8"
     inkscape:window-y="-8"
     inkscape:window-maximized="1"
     inkscape:current-layer="svg5116" />
  <path
     fill="#272525"
     d="M.032 12h12.937c-.163-2.643-2.074-4.837-4.671-5.543a3.47 3.47 0 0 0 1.687-2.972 3.485 3.485 0 0 0-6.97 0c0 1.264.68 2.361 1.688 2.972C2.106 7.163.194 9.357.032 12z"
     id="path5114" />
  <path
     style="fill:#ffc600;fill-opacity:0;stroke-width:0.05084746"
     d="m 0.08305085,11.795998 c 0,-0.09542 0.03250848,-0.343399 0.07224106,-0.551063 C 0.54093408,9.2293658 2.0058551,7.5127358 4.0105162,6.7272905 4.2974441,6.6148693 4.5765296,6.5053866 4.630706,6.4839961 4.7173708,6.4497773 4.7017617,6.4262197 4.5008221,6.2879695 4.1887341,6.0732473 3.6889898,5.5295237 3.5004391,5.1995492 3.4148208,5.0497124 3.2815894,4.7440678 3.2043693,4.520339 3.0801292,4.1603801 3.0640099,4.0404019 3.0643243,3.4779661 3.0646405,2.9124151 3.0807227,2.7952978 3.2102617,2.4151931 3.3940539,1.8758939 3.7342881,1.3540933 4.1622512,0.955173 6.0814019,-0.83373839 9.1953424,0.09586316 9.8493302,2.6529311 10.177921,3.9377085 9.6496588,5.4598566 8.6189315,6.1982354 8.468689,6.3058642 8.3274892,6.4093703 8.3051549,6.428248 c -0.022334,0.018878 0.1149539,0.08604 0.3050848,0.1492474 1.7108973,0.5687777 3.1460733,1.8434827 3.8361083,3.4071829 0.211854,0.4800857 0.414208,1.2038937 0.473152,1.6924407 l 0.03528,0.292373 H 6.5189132 0.08305085 Z"
     id="path5124"
     inkscape:connector-curvature="0" />
  <path
     style="fill:#ffc600;fill-opacity:1;stroke-width:0.05084746"
     d="M 0.09159712,11.636619 C 0.18600005,10.755097 0.6577398,9.5942283 1.2303763,8.8342825 1.983951,7.8342132 3.0636567,7.0461493 4.2520511,6.6287995 4.4699166,6.5522878 4.6447318,6.469889 4.6405295,6.4456912 4.6363269,6.4214934 4.5043906,6.2981746 4.3473373,6.1716493 3.7775032,5.7125812 3.3160082,4.9953478 3.1375947,4.2915254 3.0290467,3.8633153 3.0287354,3.0946295 3.1369356,2.6644068 3.3804006,1.6963486 4.0638222,0.84613734 4.9502576,0.40854231 c 1.0398477,-0.51332811 2.0596371,-0.51332811 3.0994849,0 C 8.9251298,0.84068349 9.6083539,1.6826766 9.8596044,2.6389831 9.9644493,3.0380436 9.9640608,3.9127695 9.8588569,4.3169492 9.6706385,5.0400725 9.1467968,5.8179056 8.5558964,6.2516659 8.4153205,6.3548583 8.3118388,6.4508232 8.3259368,6.4649212 c 0.014099,0.014099 0.1876947,0.080207 0.3857695,0.146908 1.160254,0.3907108 2.3040657,1.2220179 3.0579157,2.2224533 0.572636,0.7599458 1.044376,1.9208145 1.138779,2.8023365 l 0.03565,0.332873 H 6.5 0.05594946 Z"
     id="path5669"
     inkscape:connector-curvature="0" />
</svg>
